<?xml version="1.0" encoding="utf-8"?>
<!DOCTYPE svg PUBLIC "-//W3C//DTD SVG 1.1//EN" "http://www.w3.org/Graphics/SVG/1.1/DTD/svg11.dtd">
<svg version="1.1" id="Ebene_1" xmlns="http://www.w3.org/2000/svg" xmlns:xlink="http://www.w3.org/1999/xlink" x="0px" y="0px"
	 width="32px" height="32px" viewBox="0 0 32 32" enable-background="new 0 0 32 32" xml:space="preserve">
<g>
	<path fill="#363636" d="M16,8.181c-0.857,0-1.551-0.695-1.551-1.552V1.552C14.449,0.695,15.143,0,16,0
		c0.857,0,1.552,0.695,1.552,1.552V6.63C17.552,7.486,16.857,8.181,16,8.181z"/>
	<path fill="#484848" d="M11.315,9.437c-0.536,0-1.058-0.278-1.345-0.776L7.432,4.263C7.003,3.521,7.258,2.572,8,2.144
		c0.742-0.428,1.691-0.174,2.119,0.568l2.539,4.398c0.429,0.742,0.174,1.691-0.568,2.12C11.846,9.37,11.579,9.437,11.315,9.437z"/>
	<path fill="#5A5A5A" d="M7.883,12.867c-0.263,0-0.53-0.067-0.774-0.208L2.711,10.12C1.969,9.691,1.715,8.742,2.144,8
		c0.428-0.742,1.377-0.997,2.119-0.568l4.398,2.539c0.742,0.429,0.997,1.377,0.568,2.12C8.941,12.588,8.419,12.867,7.883,12.867z"/>
	<path fill="#6C6C6C" d="M6.63,17.553H1.552C0.695,17.553,0,16.857,0,16c0-0.857,0.695-1.551,1.552-1.551H6.63
		c0.856,0,1.551,0.694,1.551,1.551C8.181,16.857,7.486,17.553,6.63,17.553z"/>
	<path fill="#7E7E7E" d="M3.489,24.775c-0.536,0-1.058-0.277-1.345-0.775c-0.428-0.742-0.174-1.691,0.568-2.119l4.398-2.54
		c0.743-0.428,1.691-0.174,2.119,0.568c0.429,0.741,0.175,1.69-0.567,2.12l-4.398,2.539C4.019,24.709,3.752,24.775,3.489,24.775z"/>
	<path fill="#909090" d="M8.774,30.064c-0.263,0-0.53-0.067-0.774-0.209c-0.742-0.428-0.996-1.377-0.568-2.119l2.539-4.397
		c0.429-0.741,1.377-0.997,2.12-0.567c0.743,0.429,0.996,1.377,0.568,2.119l-2.539,4.398C9.832,29.786,9.311,30.064,8.774,30.064z"
		/>
	<path fill="#A2A2A2" d="M16,32c-0.857,0-1.551-0.693-1.551-1.551v-5.078c0-0.857,0.694-1.553,1.551-1.553
		c0.857,0,1.552,0.695,1.552,1.553v5.078C17.552,31.305,16.857,32,16,32z"/>
	<path fill="#B4B4B4" d="M23.227,30.064c-0.537,0-1.059-0.278-1.346-0.776l-2.539-4.397c-0.429-0.742-0.174-1.69,0.568-2.119
		c0.742-0.428,1.691-0.174,2.119,0.567l2.539,4.397c0.428,0.742,0.174,1.691-0.568,2.119C23.756,29.997,23.488,30.064,23.227,30.064
		z"/>
	<path fill="#C6C6C6" d="M28.512,24.775c-0.263,0-0.529-0.066-0.773-0.207l-4.397-2.539c-0.741-0.428-0.995-1.377-0.567-2.119
		s1.377-0.996,2.119-0.568l4.397,2.54c0.742,0.429,0.996,1.377,0.567,2.12C29.568,24.498,29.048,24.775,28.512,24.775z"/>
	<path d="M25.372,17.551c-0.856,0-1.552-0.693-1.552-1.552c0-0.857,0.693-1.551,1.552-1.551h5.077c0.857,0,1.552,0.695,1.552,1.551
		c0,0.856-0.694,1.552-1.552,1.552H25.372z"/>
	<path fill="#121212" d="M24.117,12.866c-0.536,0-1.059-0.278-1.346-0.776c-0.428-0.742-0.174-1.691,0.568-2.119l4.396-2.539
		C28.48,7.003,29.428,7.258,29.857,8c0.428,0.742,0.174,1.691-0.568,2.119l-4.396,2.539C24.646,12.798,24.38,12.866,24.117,12.866z"
		/>
	<path fill="#242424" d="M20.684,9.436c-0.263,0-0.529-0.067-0.773-0.208c-0.742-0.428-0.996-1.377-0.568-2.12l2.539-4.397
		c0.428-0.742,1.378-0.997,2.12-0.568c0.742,0.429,0.996,1.377,0.567,2.12L22.029,8.66C21.741,9.158,21.221,9.436,20.684,9.436z"/>
</g>
</svg>
